<?xml version="1.0" encoding="UTF-8"?>
<svg xmlns="http://www.w3.org/2000/svg" xmlns:xlink="http://www.w3.org/1999/xlink" width="105.5pt" height="105.5pt" viewBox="0 0 105.5 105.5" version="1.1">
<defs>
<clipPath id="clip1">
  <path d="M 87 115 L 105.269531 115 L 105.269531 132.261719 L 87 132.261719 Z M 87 115 "/>
</clipPath>
<clipPath id="clip2">
  <path d="M 62 114 L 81 114 L 81 132.261719 L 62 132.261719 Z M 62 114 "/>
</clipPath>
<clipPath id="clip3">
  <path d="M 30 115 L 50 115 L 50 132.261719 L 30 132.261719 Z M 30 115 "/>
</clipPath>
<clipPath id="clip4">
  <path d="M 0 114 L 22 114 L 22 132.261719 L 0 132.261719 Z M 0 114 "/>
</clipPath>
</defs>
<g id="surface1">
<path style=" stroke:none;fill-rule:nonzero;fill:rgb(1.599121%,31.799316%,61.599731%);fill-opacity:1;" d="M 99.253906 42.332031 C 97.453125 50.035156 93.207031 58.890625 86.871094 67.675781 C 83.847656 71.851563 80.390625 75.957031 76.574219 79.917969 C 68.152344 88.558594 59.152344 95.035156 50.871094 98.925781 C 65.054688 98.925781 77.871094 92.660156 86.871094 82.867188 C 96.519531 72.355469 101.703125 57.667969 99.253906 42.332031 "/>
<path style=" stroke:none;fill-rule:nonzero;fill:rgb(1.599121%,31.799316%,61.599731%);fill-opacity:1;" d="M 86.871094 5.035156 C 95.582031 2.515625 98.75 7.988281 91.984375 23.179688 C 90.542969 20.660156 88.816406 18.5 86.871094 16.484375 C 84.351563 13.820313 81.398438 11.445313 78.160156 8.996094 C 81.472656 7.050781 84.351563 5.683594 86.871094 5.035156 Z M 86.871094 52.414063 C 95.222656 40.101563 101.269531 27.644531 103.144531 17.636719 C 103.574219 15.332031 103.789063 13.171875 103.863281 11.300781 L 103.863281 10.578125 C 103.789063 5.757813 102.207031 2.300781 98.03125 0.570313 C 95.152344 -0.363281 91.335938 -0.148438 86.871094 1.21875 C 83.269531 2.371094 79.238281 4.316406 74.847656 7.050781 C 54.472656 -4.753906 28.40625 0.0703125 13.648438 17.347656 C 1.191406 30.882813 -2.265625 52.917969 5.582031 69.546875 L 5.65625 69.476563 C 2.414063 61.628906 2.199219 52.269531 4.070313 43.84375 C 4.359375 42.1875 4.863281 40.53125 5.4375 38.804688 C 5.582031 38.371094 5.726563 38.011719 5.871094 37.582031 C 6.230469 36.574219 6.664063 35.78125 7.023438 35.132813 C 12.136719 24.332031 21.207031 18.070313 28.046875 21.238281 C 34.816406 24.40625 36.398438 35.058594 31.359375 46.796875 C 29.917969 49.820313 26.535156 56.300781 22.574219 63.210938 C 12.710938 80.347656 4.429688 102.667969 18.6875 105.117188 C 23.078125 105.546875 28.046875 104.324219 33.375 101.804688 C 51.375 94.53125 72.472656 73.652344 86.871094 52.414063 "/>
</g>
</svg>
